<?xml version="1.0" encoding="UTF-8" standalone="no"?>
<svg
   xmlns:dc="http://purl.org/dc/elements/1.1/"
   xmlns:cc="http://creativecommons.org/ns#"
   xmlns:rdf="http://www.w3.org/1999/02/22-rdf-syntax-ns#"
   xmlns:svg="http://www.w3.org/2000/svg"
   xmlns="http://www.w3.org/2000/svg"
   xmlns:sodipodi="http://sodipodi.sourceforge.net/DTD/sodipodi-0.dtd"
   xmlns:inkscape="http://www.inkscape.org/namespaces/inkscape"
   viewBox="0 0 656.25 656.25"
   height="185.20833mm"
   width="185.20833mm"
   version="1.1"
   id="svg3355"
   inkscape:version="0.91 r13725"
   sodipodi:docname="tous_3.jpg_simplificado.svg">
  <sodipodi:namedview
     pagecolor="#ffffff"
     bordercolor="#666666"
     borderopacity="1"
     objecttolerance="10"
     gridtolerance="10"
     guidetolerance="10"
     inkscape:pageopacity="0"
     inkscape:pageshadow="2"
     inkscape:window-width="1920"
     inkscape:window-height="965"
     id="namedview6"
     showgrid="false"
     inkscape:zoom="1.7149333"
     inkscape:cx="-77.709855"
     inkscape:cy="790.48888"
     inkscape:window-x="0"
     inkscape:window-y="40"
     inkscape:window-maximized="1"
     inkscape:current-layer="svg3355"
     units="mm"
     inkscape:document-units="mm" />
  <metadata
     id="metadata3361">
    <rdf:RDF>
      <cc:Work
         rdf:about="">
        <dc:format>image/svg+xml</dc:format>
        <dc:type
           rdf:resource="http://purl.org/dc/dcmitype/StillImage" />
        <dc:title></dc:title>
      </cc:Work>
    </rdf:RDF>
  </metadata>
  <defs
     id="defs3359" />
  <path
     style="fill:#000000"
     d="m -52.190879,120.9542 c -22.89773,-4.74184 -43.1396,-25.534382 -41.70041,-49.874112 1.55397,-5.20991 0.86286,-9.90878 -2.10859,-14.40248 -7.781381,-14.97182 -5.590501,-35.29692 8.36858,-45.93162 12.51227,-11.69773007 26.85268,-21.51809 38.18932,-34.42045 -1.17156,-7.87896 -6.51249,-14.85456 -9.72037,-22.25367 -0.80825,-5.53051 -6.41676,-3.37166 -10.40011,-3.85689 -17.34993,1.0318 -31.326211,-16.373412 -28.53275,-33.088727 1.07889,-16.209692 17.03576,-28.574731 32.97978,-26.142731 6.54204,1.86711 12.3328,3.97688 17.17294,-2.17496 25.89682,-18.5493 62.617581,-20.76425 89.807446,-3.66401 5.676358,1.45131 9.731158,10.28242 15.570424,8.53415 13.897967,-6.00749 31.936461,-0.87059 38.581922,13.273968 7.868857,14.712409 2.608899,37.01771 -14.583467,42.1775 -5.905523,2.92827 -13.561754,0.46967 -19.167255,2.09713 -3.989275,8.005 -7.978549,16.01 -11.967824,24.015 14.284073,16.4540699 32.397274,29.3969599 46.036688,46.42812 8.862635,13.10759 4.241875,29.65281 -2.180363,42.6307 2.539153,15.15593 0.26736,32.29989 -11.610601,43.194332 C 66.509475,122.67692 40.973383,125.05654 20.99459,117.04794 10.989244,112.9568 4.8929214,103.45258 1.2230914,93.726798 c -5.46436,11.056522 -14.3008304,21.809052 -26.9047804,25.383852 -8.44345,2.8878 -17.73253,2.26812 -26.50919,1.84355 z m 22.23719,-5.06822 c 17.44005,-3.83342 30.19091036,-21.371432 28.2411904,-39.158632 0.94767996,-12.30593 -6.40206,-22.6779 -12.0630204,-32.61988 7.0394104,-1.5089 10.5579904,10.24606 13.87866036,15.84218 3.17393004,0.56465 6.28431404,-12.73314 11.49342764,-15.41302 9.420166,-1.56275 -5.4076256,11.35096 -5.6815716,16.17607 -5.89387604,14.04456 -2.492046,30.87833 5.4348746,43.421972 8.673828,12.11675 24.675952,13.37264 38.298182,12.51182 21.394034,0.51761 42.354938,-17.907662 41.135118,-40.012852 -0.181507,-20.02954 -13.827516,-38.56806 -31.608662,-47.10771 -8.362574,-9.3402 10.027392,-0.88291 12.665078,2.84507 9.405567,5.56408 14.742213,18.32701 20.626763,24.7971 6.73186,-12.56404 6.488782,-30.06152 -5.255055,-39.64514 -12.98648,-13.7608701 -28.165354,-25.4120501 -40.337284,-39.9106 -0.996225,-7.6298 5.697463,-14.81611 8.470168,-22.0917 2.209828,-2.82393 2.677634,-8.64098 6.048519,-9.47 10.889753,1.2407 24.086488,0.5174 30.332025,-9.99568 8.536966,-14.846759 0.874664,-38.151098 -17.491602,-40.389068 -11.258172,-1.22254 -22.043171,7.860378 -30.313007,-4.10414 -25.193058,-18.46326 -61.166044,-17.92501 -86.898114,-0.88485 -7.7732,9.385173 -17.47853,5.4647 -27.80329,4.66736 -14.06115,-0.22702 -24.97898,13.885615 -22.88248,27.440453 -0.62335,14.635425 14.4732,25.459595 28.2869,23.101845 4.22779,-0.58363 8.12913,-0.62393 8.98392,4.40645 4.07756,8.60454 9.02929,16.85468 12.2508,25.81795 -7.07755,10.21584 -17.84841,17.7854199 -27.14815,26.0792999 -10.29782,9.1892301 -24.84173,17.9357901 -24.75885,33.5388701 -0.4216,5.59227 1.19629,20.42638 6.32279,19.21022 6.7098,-13.37902 17.75229,-24.75564 31.63778,-30.61777 8.23816,3.41593 -9.93714,8.25493 -12.20181,12.55926 -13.45505,10.92585 -22.58628,28.83753 -18.05493,46.29737 5.79241,22.673122 30.94264,37.911572 53.7825,33.551182 l 2.47543,-0.38093 2.1337,-0.4625 0,0 z M -2.4693286,-47.556992 c -5.57542,-12.15601 16.3126546,-3.39513 3.77021,1.38412 -1.37412004,0.21571 -2.90788,-0.23857 -3.77021,-1.38412 z M -27.669909,-73.441913 c -6.89222,-10.323717 14.57985,-6.51952 4.28402,0.992031 -1.44879,0.960346 -3.19484,-0.0068 -4.28402,-0.992031 z m 51.275154,0.714292 c -8.879473,-7.374135 11.019897,-10.8514 5.221449,-0.91917 -1.276159,1.363528 -3.541924,2.116445 -5.221449,0.91917 z"
     id="path3365"
     inkscape:connector-curvature="0" />
</svg>
