<?xml version="1.0" encoding="UTF-8" standalone="no"?>
<svg
   xmlns:dc="http://purl.org/dc/elements/1.1/"
   xmlns:cc="http://creativecommons.org/ns#"
   xmlns:rdf="http://www.w3.org/1999/02/22-rdf-syntax-ns#"
   xmlns:svg="http://www.w3.org/2000/svg"
   xmlns="http://www.w3.org/2000/svg"
   viewBox="0 0 656.25 656.25"
   height="656.25"
   width="656.25"
   version="1.1"
   id="svg3355">
  <metadata
     id="metadata3361">
    <rdf:RDF>
      <cc:Work
         rdf:about="">
        <dc:format>image/svg+xml</dc:format>
        <dc:type
           rdf:resource="http://purl.org/dc/dcmitype/StillImage" />
        <dc:title></dc:title>
      </cc:Work>
    </rdf:RDF>
  </metadata>
  <defs
     id="defs3359" />
  <path
     id="path3365"
     d="m -99.08835,285.25264 c -26.68359,-4.96182 -58.823,-25.69258 -73.72209,-47.55266 -14.92477,-21.89778 -21.60691,-48.97839 -17.66744,-71.60054 l 1.45455,-8.35264 -5.59549,-11.65842 c -8.42259,-17.54876 -11.21926,-28.80308 -11.24785,-45.2634 -0.0192,-11.034475 0.54485,-15.478063 2.85588,-22.5 6.6624,-20.24335 14.1614,-28.8193 54.77365,-62.63985 30.20199,-25.151225 52.466253,-45.63065 55.23809,-50.809875 1.492438,-2.788663 0.541288,-5.18505 -12.02565,-30.298163 l -13.64629,-27.269987 -15.52117,-0.197837 c -18.55619,-0.236525 -28.16577,-2.886313 -40.19638,-11.083938 -20.42225,-13.91564 -30.75393,-41.03686 -25.59949,-67.20005 5.27326,-26.76637 21.96436,-44.90562 47.19045,-51.28476 12.71103,-3.21435 27.09725,-2.72632 40.22119,1.36445 l 8.38698,2.61424 7.863022,-5.79602 C -25.91625,-276.1777 61.2592,-275.99227 128.72624,-223.7981 l 9.68958,7.49611 9.06042,-3.22517 c 12.049,-4.28898 30.96675,-5.27442 41.71096,-2.17276 23.5397,6.79551 40.95617,25.70063 46.0858,50.0249 2.54236,12.05571 2.34299,23.44865 -0.61259,35.00484 -5.59184,21.86385 -19.31281,35.84447 -41.87376,42.666148 -5.60596,1.69505 -11.31338,2.235812 -22.60016,2.141287 l -15.10017,-0.126462 -13.57123,27.23245 -13.57124,27.232449 3.43305,4.500963 c 1.88817,2.475525 17.04031,17.259963 33.6714,32.8543 16.63109,15.594337 37.5963,35.6975 46.58935,44.673687 14.33579,14.3089 16.99426,17.629838 21.57029,26.945338 2.8706,5.84375 5.77827,13.6549 6.4615,17.358112 3.54858,19.234228 -0.60693,41.640038 -11.83068,63.789048 -3.33977,6.59074 -3.36547,6.82724 -1.8491,17.0196 2.09444,14.07784 0.92374,34.97694 -2.58844,46.20824 -12.9179,41.30915 -49.75066,67.35694 -99.2309,70.17517 -48.28707,2.75028 -82.290595,-12.88831 -97.388983,-44.79025 -3.028587,-6.39921 -6.067862,-13.04117 -6.75395,-14.75992 -1.176725,-2.94787 -1.495462,-2.59364 -5.623537,6.25 -11.5998375,24.8505 -32.066813,41.96777 -59.902188,50.09838 -7.262,2.1212 -13.321312,2.77734 -28.590012,3.09596 -10.65625,0.22236 -21.90625,-0.0664 -25,-0.64168 z m 49.259213,-11.22698 c 16.203087,-4.21957 27.444262,-10.54732 38.995137,-21.95068 11.084125,-10.94259 17.3100625,-21.66531 21.410725,-36.875 2.991813,-11.09684 2.919138,-36.89773 -0.1426,-50.625 -2.8459875,-12.76 -10.0982,-27.84236 -18.1848,-37.8188 -6.159012,-7.59838 -7.723937,-11.8019 -5.016625,-13.47511 4.84375,-2.9936 15.940025,9.34761 25.12845,27.94777 l 5.8412,11.82434 4.6256,-9.2391 c 5.593213,-11.1718 14.106725,-23.39907 19.383888,-27.83951 3.097737,-2.60658 4.3672,-3.00538 6.290387,-1.97611 3.74665,2.00513 2.951088,4.44176 -4.602062,14.095 -16.188863,20.69006 -23.064763,42.48933 -20.446025,64.82179 3.486874,29.73586 11.785187,50.45418 25.236237,63.00707 8.968825,8.36996 17.444188,12.91596 31.7476,17.02876 8.78065,2.52479 12.559763,2.82929 34.848675,2.80797 23.65898,-0.0226 25.59055,-0.20671 36.00934,-3.43183 27.31462,-8.45521 46.6045,-23.7191 57.18793,-45.25224 7.05704,-14.35829 9.19045,-23.69504 9.13988,-40 -0.0541,-17.44453 -2.45775,-27.2164 -11.06885,-45 -12.78396,-26.40134 -29.05416,-43.207338 -55.6433,-57.475688 -9.73391,-5.223437 -12.08658,-8.6115 -8.21247,-11.826725 1.57571,-1.307725 3.30528,-0.92985 9.92697,2.168813 25.69637,12.024787 48.55695,34.39666 61.20235,59.89404 2.82716,5.70051 5.56299,10.36456 6.07963,10.36456 1.60767,0 4.56382,-6.81433 7.94763,-18.32038 6.2722,-21.32758 4.09705,-41.256295 -6.23912,-57.162833 C 217.06118,62.70628 197.22805,42.985355 155.76459,4.2372425 128.09809,-21.617445 118.41165,-32.34037 118.41165,-37.112595 c 0,-1.488663 7.0377,-16.7734 15.63934,-33.966075 l 15.63933,-31.25943 15.29817,0.80743 c 12.04001,0.63547 16.96166,0.37891 23.10885,-1.20463 26.12027,-6.72868 39.06431,-24.18752 39.06431,-52.68972 0,-30.8804 -17.92201,-53.52571 -46.19906,-58.37468 -10.53723,-1.80693 -22.0687,-0.24022 -34.04249,4.62517 -4.22921,1.71848 -8.51425,3.12451 -9.52231,3.12451 -1.00807,0 -5.55171,-3.02424 -10.09699,-6.72053 -23.7279,-19.29588 -48.68675,-31.59142 -76.38915,-37.63178 -12.892863,-2.81121 -42.05555,-3.85835 -55.1540375,-1.98039 -31.4991125,4.51608 -61.1457745,16.83085 -86.7126005,36.01905 -7.994624,6.00007 -11.472602,7.90499 -13.512022,7.40066 -1.51049,-0.37352 -6.68384,-1.87103 -11.49634,-3.3278 -11.65744,-3.52877 -31.51532,-3.04321 -41.875,1.02391 -14.15907,5.55874 -26.08514,18.20146 -30.86235,32.71688 -3.4671,10.5347 -3.06525,33.18205 0.76173,42.92959 5.7726,14.70311 18.1034,26.02392 33.66103,30.90396 7.03499,2.2067 10.81544,2.54524 24.56459,2.19976 l 16.25,-0.40831 16.712963,33.427262 c 15.769837,31.540913 16.60815,33.586563 14.855525,36.25 -4.180263,6.352688 -30.297938,31.110288 -50.876428,48.227025 -48.65022,40.466225 -54.02331,46.123775 -60.29222,63.484188 -3.31263,9.173637 -4.39175,26.466185 -2.31448,37.088825 2.04952,10.48071 8.65521,27.39771 10.46824,26.80886 0.79552,-0.25836 3.97765,-5.08227 7.0714,-10.7198 3.09375,-5.63752 8.10855,-13.6286 11.14401,-17.75795 11.1786,-15.20706 31.37647,-31.755447 49.70135,-40.720972 7.49148,-3.665238 10.67705,-3.186738 11.4109,1.714012 0.30633,2.045675 -1.68386,3.671825 -10.1253,8.273263 -27.30471,14.8838 -47.53183,36.478317 -59.0375,63.028517 -6.01697,13.88463 -7.22953,20.84166 -6.56409,37.66112 0.68754,17.37811 4.33563,29.57761 13.02763,43.56545 15.09899,24.29845 45.76471,44.72619 73.568,49.00675 11.3785,1.75184 33.51365,0.5752 44.884213,-2.38587 z m 60.8826,-362.054305 C 7.5679,-92.459833 7.7136,-96.715608 11.479838,-100.48183 c 5.553374,-5.55339 14.462162,-2.73789 16.4545,5.200222 2.144112,8.542788 -11.316913,14.326388 -16.880875,7.252963 z m -55.823626,-57.339565 c -6.205812,-6.2058 -2.449637,-15.68181 6.216088,-15.68181 4.930575,0 9.465725,4.59968 9.465725,9.60039 0,3.9748 -5.302287,9.14961 -9.375,9.14961 -1.78125,0 -4.619312,-1.38069 -6.306812,-3.06819 z m 113.583288,1.58228 c -4.167388,-2.01478 -6.008988,-7.53118 -3.949038,-11.82911 3.294088,-6.87289 13.726126,-7.0292 16.973238,-0.25433 2.063863,4.30612 0.02825,10.23344 -4.171712,12.14705 -3.719651,1.69479 -5.237926,1.68387 -8.852488,-0.0636 z"
     style="fill:#000000" />
</svg>
