<?xml version="1.0" encoding="UTF-8" standalone="no"?>
<svg
   xmlns:dc="http://purl.org/dc/elements/1.1/"
   xmlns:cc="http://creativecommons.org/ns#"
   xmlns:rdf="http://www.w3.org/1999/02/22-rdf-syntax-ns#"
   xmlns:svg="http://www.w3.org/2000/svg"
   xmlns="http://www.w3.org/2000/svg"
   version="1.1"
   id="svg2"
   viewBox="0 0 744.09448819 1052.3622047"
   height="297mm"
   width="210mm">
  <defs
     id="defs4" />
  <metadata
     id="metadata7">
    <rdf:RDF>
      <cc:Work
         rdf:about="">
        <dc:format>image/svg+xml</dc:format>
        <dc:type
           rdf:resource="http://purl.org/dc/dcmitype/StillImage" />
        <dc:title></dc:title>
      </cc:Work>
    </rdf:RDF>
  </metadata>
  <g
     id="layer1">
    <g
       transform="translate(-250,-430)"
       id="text3336"
       style="font-style:normal;font-weight:normal;font-size:20px;line-height:125%;font-family:sans-serif;letter-spacing:0px;word-spacing:0px;fill:#000000;fill-opacity:1;stroke:none;stroke-width:1px;stroke-linecap:butt;stroke-linejoin:miter;stroke-opacity:1">
      <path
         id="path3341"
         style="font-style:normal;font-variant:normal;font-weight:bold;font-stretch:normal;font-size:40px;font-family:Purisa;-inkscape-font-specification:'Purisa Bold'"
         d="m 101.31429,430.87648 q 0.04,-0.44 0.84,-1.88 0.84,-1.44 1.64,-3.72 0.8,-2.28 0.8,-4.84 0,-1.84 -0.6,-2.56 -0.6,-0.76 -1.72,-0.76 -1.04,0 -2,0.56 -2.120003,1.16 -4.800003,6.12 -2.64,4.96 -2.64,8.12 0,1.16 0.84,2 0.84,0.84 2.04,0.84 1.36,0 3.52,-1.76 1.880003,-1.56 2.080003,-2.12 z m -7.840003,-11.48 q 0,-0.64 1.68,-2.2 1.68,-1.56 3.88,-2.88 2.200003,-1.32 3.400003,-1.32 1.76,0 3.56,2.16 1.84,2.12 1.84,5.8 0,5.2 -3.52,11.16 -3.72,6.12 -9.360003,6.12 -3.24,0 -5.08,-3.72 -0.92,-1.84 -0.92,-2.76 0,-1.8 2.24,-6.8 2.28,-5 2.28,-5.56 z" />
      <path
         id="path3343"
         style="font-style:normal;font-variant:normal;font-weight:bold;font-stretch:normal;font-size:40px;font-family:Purisa;-inkscape-font-specification:'Purisa Bold'"
         d="m 147.34304,437.99648 q -0.68,0 -1.04,-0.4 -0.36,-0.4 -0.64,-1.68 -0.24,-1.28 -0.36,-3.4 -0.08,-2.16 -0.08,-5.92 0,-5.64 -0.24,-7.44 -0.2,0.2 -1.28,1.6 -1.04,1.4 -1.96,2.24 -0.88,0.8 -1.6,0.8 -0.56,0 -1,-0.4 -0.4,-0.4 -0.4,-1.04 0,-0.52 0.24,-0.88 0.24,-0.36 0.88,-1.04 0.68,-0.68 1.12,-1.24 l 1.36,-1.76 q 0.48,-0.56 1.2,-1.88 0.76,-1.32 1.36,-2 0.64,-0.72 1.44,-0.72 0.04,0 0.12,0.04 0.08,0 0.16,0 1.04,0.28 1.32,2.52 0.2,1.68 0.48,8.32 0.28,6.64 0.28,10.6 0,2.36 -0.16,2.92 -0.48,0.76 -1.2,0.76 z" />
      <path
         id="path3345"
         style="font-style:normal;font-variant:normal;font-weight:bold;font-stretch:normal;font-size:40px;font-family:Purisa;-inkscape-font-specification:'Purisa Bold'"
         d="m 203.99866,433.87648 q 1.92,0 2.84,0.32 0.96,0.28 0.96,1.28 0,0.68 -0.28,1 -0.28,0.28 -1.08,0.4 -0.8,0.08 -1.8,0.08 -0.96,0 -2.84,0.16 -1.88,0.16 -3.84,0.48 -2.36,0.4 -4.72,0.68 -2.32,0.28 -3.32,0.4 -0.96,0.12 -1.24,0.36 -0.56,0.4 -1.44,0.4 -0.92,0 -1.72,-0.48 -0.76,-0.48 -0.76,-1.12 0,-0.84 1.68,-2.64 1.68,-1.8 2.8,-2.56 1.48,-1.04 4.2,-5.84 2.76,-4.84 2.76,-7.84 0,-0.96 -0.6,-1.32 -0.56,-0.36 -2.44,-0.36 -1.96,0 -3.84,0.72 -1.84,0.72 -3.16,1.76 -1.32,1.04 -2.4,2.08 -1.08,1.04 -1.84,1.76 -0.76,0.72 -1.08,0.72 -0.04,-0.08 -0.2,-0.12 -0.16,-0.04 -0.28,-0.12 -0.08,-0.08 -0.16,-0.48 -0.08,-0.44 -0.08,-1.16 0,-0.92 0.28,-1.48 0.32,-0.56 0.68,-0.76 0.4,-0.2 0.72,-0.44 0.36,-0.24 0.44,-0.56 0.04,-0.28 0.2,-0.52 0.2,-0.28 0.56,-0.56 0.36,-0.32 0.68,-0.56 0.36,-0.24 1.04,-0.72 0.68,-0.48 1.16,-0.8 0.92,-0.72 3.04,-1.44 2.12,-0.76 4.6,-0.76 4.12,0 5.56,2.16 0.68,1.04 0.68,2.72 0,3.16 -1.56,6.28 -3.52,6.96 -6.64,10.08 7.68,-1.2 12.44,-1.2 z" />
      <path
         id="path3347"
         style="font-style:normal;font-variant:normal;font-weight:bold;font-stretch:normal;font-size:40px;font-family:Purisa;-inkscape-font-specification:'Purisa Bold'"
         d="m 247.36241,438.47648 q -4.6,0 -4.6,-4.68 0,-2.12 1.28,-2.12 1,0 1.76,1 0.8,1 0.8,2.04 0,0.36 0.12,0.44 0.16,0.04 0.88,0.04 1.92,0 3.6,-0.72 1.72,-0.76 2.36,-1.32 0.68,-0.56 1.08,-1.04 0.96,-1.12 0.96,-3.64 0,-2.36 -0.64,-3.08 -0.6,-0.72 -1.92,-0.72 -2.04,0 -3.64,0.92 -1.6,0.88 -2.32,0.88 -0.96,0 -1.48,-0.52 -0.52,-0.52 -0.52,-1.24 0,-0.52 0.28,-0.88 0.28,-0.36 0.76,-0.36 0.68,-0.16 3.12,-2.64 2.44,-2.52 3.12,-3.4 -1.48,0.12 -4,0.48 -2.48,0.36 -4.36,0.68 -1.88,0.28 -2.04,0.28 -0.52,0 -0.76,-0.24 -0.24,-0.28 -0.28,-0.64 l -0.04,-0.32 q -0.36,-0.04 -0.64,-0.24 -0.24,-0.24 -0.24,-0.6 0.08,-0.44 0.4,-0.64 0.56,-0.36 2.84,-0.88 2.28,-0.52 4.56,-0.88 2.32,-0.4 4.68,-0.76 2.36,-0.36 2.56,-0.4 1.96,-0.36 2.04,-0.36 0.68,0 1.24,0.76 0.6,0.72 0.6,1.28 0,0.28 -0.32,0.8 -0.32,0.48 -0.96,1.2 -0.64,0.68 -1.24,1.28 -0.56,0.56 -1.48,1.48 -0.92,0.92 -1.4,1.44 l 0.56,0 q 1.4,0 3.04,1.48 1.64,1.44 2.08,3 0.16,0.64 0.16,1.6 0,3.44 -1.8,6.2 -1.44,2.24 -4.44,3.64 -3,1.4 -5.76,1.4 z" />
      <path
         id="path3349"
         style="font-style:normal;font-variant:normal;font-weight:bold;font-stretch:normal;font-size:40px;font-family:Purisa;-inkscape-font-specification:'Purisa Bold'"
         d="m 294.94741,427.87648 q 2.16,-0.32 3.28,-0.52 1.12,-0.2 1.68,-0.44 0.6,-0.24 0.68,-0.4 0.12,-0.16 0.12,-0.56 0,-0.52 -0.28,-3.24 l -0.16,-1.44 -1.04,1.08 q -2.36,2.52 -4.28,5.52 z m -2.88,3.32 q -1.92,0 -1.92,-1.36 0,-1.08 1.6,-3.36 2.72,-3.64 6.04,-7.36 3.32,-3.72 4.24,-4.28 0.32,-0.16 0.44,-0.16 0.2,0 0.56,-0.52 0.36,-0.56 1,-0.56 0.68,0 1.08,0.48 0.44,0.48 0.44,1 0,0.96 -1.04,2 -0.56,0.64 -0.68,1.24 -0.12,0.6 -0.12,2.76 0,4.6 0.36,4.6 0.88,0 2.12,-0.56 1.24,-0.56 1.56,-0.56 1,0 1.68,0.56 0.72,0.56 0.72,1.28 0,0.56 -0.48,1 -0.44,0.4 -1.32,0.48 -0.68,0.04 -2.84,0.68 l -1.44,0.44 0.16,2.88 q 0.08,1.72 0.32,2.88 0.24,1.12 0.44,1.64 0.2,0.48 0.2,0.68 0,0.52 -0.56,1.08 -0.56,0.6 -1.24,0.6 -1.12,0 -1.68,-1.84 -0.52,-1.84 -0.76,-4.2 -0.2,-2.36 -0.4,-2.8 -0.44,0.08 -2.28,0.44 -1.84,0.32 -3.52,0.6 -1.68,0.24 -2.68,0.24 z" />
      <path
         id="path3351"
         style="font-style:normal;font-variant:normal;font-weight:bold;font-stretch:normal;font-size:40px;font-family:Purisa;-inkscape-font-specification:'Purisa Bold'"
         d="m 353.37616,427.43648 q 0,-1.52 -0.44,-2.52 -0.4,-1.04 -0.96,-1.04 -0.84,0 -2.6,0.84 -1.72,0.8 -2.56,1.68 -1.28,1.28 -1.96,1.28 -0.6,0 -1.36,-0.76 -0.88,-1.08 -0.88,-6.28 0,-4.96 0.84,-5.4 0.64,-0.32 5.52,-0.48 4.92,-0.2 6.28,-0.48 0.96,-0.24 1.96,-0.24 1.56,0 1.56,0.92 0,0.36 -0.24,0.6 -0.76,0.76 -4.04,1.52 -3.28,0.72 -5.52,0.72 l -0.72,0 q -2.52,0 -2.52,1.36 0,0.28 0.2,0.96 0.24,0.64 0.24,1.44 0,0.36 -0.12,1.08 l 0.4,-0.2 q 3.04,-1.64 5.76,-1.64 1.04,0 1.56,0.24 1.32,0.56 2.12,2.6 0.8,2 0.8,4.16 0,0.96 -0.2,2.04 -0.88,4.56 -3.36,6.64 -2.44,2.08 -6.96,2.08 -1.56,0 -2.2,-0.32 -0.64,-0.28 -1.56,-1.44 -1.76,-2.12 -1.76,-3.72 0,-1.48 0.84,-1.48 0.04,0 0.16,0.04 0.16,0.04 0.16,0.08 0,0 0.08,0.08 0.12,0.04 0.16,0.12 0.04,0.04 0.12,0.16 0.12,0.12 0.2,0.32 0.08,0.16 0.24,0.4 0.72,1.4 1.84,1.92 1.12,0.48 3.28,0.48 1.96,0 2.92,-0.72 1,-0.76 1.88,-2.8 0.84,-1.92 0.84,-4.24 z" />
      <path
         id="path3353"
         style="font-style:normal;font-variant:normal;font-weight:bold;font-stretch:normal;font-size:40px;font-family:Purisa;-inkscape-font-specification:'Purisa Bold'"
         d="m 400.02866,430.03648 q 0,-0.88 -1.04,-1.4 -1.04,-0.52 -1.8,-0.52 -0.76,0.04 -2.04,0.6 -1.24,0.56 -2.24,1.44 -0.64,0.56 -0.8,0.88 -0.16,0.28 -0.16,0.84 0,1.52 0.4,2.48 0.44,0.92 0.76,1.16 0.36,0.2 0.52,0.2 0.52,0 3.6,-1.56 0.84,-0.4 1.8,-1.84 1,-1.48 1,-2.28 z m -6.8,-3.4 q 0.2,-0.08 0.84,-0.48 0.68,-0.44 1.48,-0.76 0.8,-0.32 1.56,-0.32 1.28,0 2.84,0.6 1.56,0.6 2.32,1.4 1.04,1.16 1.04,3 0,0.76 -0.16,1.24 -0.16,0.48 -0.6,1.12 -0.4,0.64 -0.64,1.2 -0.4,0.88 -2.28,2.4 -1.88,1.52 -3.04,1.92 -1.12,0.4 -3,0.4 -2.32,0 -3.8,-1.92 -1.44,-1.96 -1.44,-4.64 0,-0.84 0.44,-2.76 0.44,-1.92 1.08,-4.08 0.64,-2.2 1.24,-4.2 0.64,-2.04 1.12,-3.52 0.52,-1.48 0.52,-1.52 0.8,-2.4 2.36,-2.4 0.6,0 1.04,0.36 0.48,0.36 0.48,0.88 0,1.2 -1.72,6.08 -1.68,4.88 -1.68,6 z" />
    </g>
  </g>
</svg>
