solid OpenSCAD_Model
  facet normal -1 0 0
    outer loop
      vertex 2.5 2.5 0.599999
      vertex 2.5 4.5 2.6
      vertex 2.5 4.5 0.599999
    endloop
  endfacet
  facet normal -1 -0 0
    outer loop
      vertex 2.5 4.5 2.6
      vertex 2.5 2.5 0.599999
      vertex 2.5 2.5 2.6
    endloop
  endfacet
  facet normal -1 0 0
    outer loop
      vertex 2.5 -4.5 0.599999
      vertex 2.5 -2.5 2.6
      vertex 2.5 -2.5 0.599999
    endloop
  endfacet
  facet normal -1 -0 0
    outer loop
      vertex 2.5 -2.5 2.6
      vertex 2.5 -4.5 0.599999
      vertex 2.5 -4.5 2.6
    endloop
  endfacet
  facet normal 0 0 -1
    outer loop
      vertex -2.5 -4.5 2.6
      vertex 2.5 -2.5 2.6
      vertex 2.5 -4.5 2.6
    endloop
  endfacet
  facet normal -0 0 -1
    outer loop
      vertex 2.5 -2.5 2.6
      vertex -2.5 -4.5 2.6
      vertex -2.5 -2.5 2.6
    endloop
  endfacet
  facet normal 0 0 -1
    outer loop
      vertex -4.5 -2.5 2.6
      vertex -2.5 2.5 2.6
      vertex -2.5 -2.5 2.6
    endloop
  endfacet
  facet normal -0 0 -1
    outer loop
      vertex -2.5 2.5 2.6
      vertex -4.5 -2.5 2.6
      vertex -4.5 2.5 2.6
    endloop
  endfacet
  facet normal 0 0 -1
    outer loop
      vertex 2.5 -2.5 2.6
      vertex 4.5 2.5 2.6
      vertex 4.5 -2.5 2.6
    endloop
  endfacet
  facet normal -0 0 -1
    outer loop
      vertex 4.5 2.5 2.6
      vertex 2.5 -2.5 2.6
      vertex 2.5 2.5 2.6
    endloop
  endfacet
  facet normal 0 0 -1
    outer loop
      vertex -2.5 2.5 2.6
      vertex 2.5 4.5 2.6
      vertex 2.5 2.5 2.6
    endloop
  endfacet
  facet normal -0 0 -1
    outer loop
      vertex 2.5 4.5 2.6
      vertex -2.5 2.5 2.6
      vertex -2.5 4.5 2.6
    endloop
  endfacet
  facet normal -0 0 1
    outer loop
      vertex -4.5 2.5 0.599999
      vertex -2.5 -2.5 0.599999
      vertex -2.5 2.5 0.599999
    endloop
  endfacet
  facet normal 0 0 1
    outer loop
      vertex -4.5 2.5 0.599999
      vertex -4.5 -2.5 0.599999
      vertex -2.5 -2.5 0.599999
    endloop
  endfacet
  facet normal 0 0 1
    outer loop
      vertex -7.5 6.5 0.599999
      vertex -4.5 -2.5 0.599999
      vertex -4.5 2.5 0.599999
    endloop
  endfacet
  facet normal 0 0 1
    outer loop
      vertex -4.5 -2.5 0.599999
      vertex -7.5 6.5 0.599999
      vertex -7.5 -6.5 0.599999
    endloop
  endfacet
  facet normal 0 0 1
    outer loop
      vertex -2.5 2.5 0.599999
      vertex 2.5 2.5 0.599999
      vertex 2.5 4.5 0.599999
    endloop
  endfacet
  facet normal 0 0 1
    outer loop
      vertex 2.5 2.5 0.599999
      vertex -2.5 2.5 0.599999
      vertex 2.5 -2.5 0.599999
    endloop
  endfacet
  facet normal 0 0 1
    outer loop
      vertex -2.5 2.5 0.599999
      vertex 2.5 4.5 0.599999
      vertex -2.5 4.5 0.599999
    endloop
  endfacet
  facet normal 0 0 1
    outer loop
      vertex 6.5 7.5 0.599999
      vertex -2.5 4.5 0.599999
      vertex 2.5 4.5 0.599999
    endloop
  endfacet
  facet normal 0 -0 1
    outer loop
      vertex -2.5 4.5 0.599999
      vertex 6.5 7.5 0.599999
      vertex -6.5 7.5 0.599999
    endloop
  endfacet
  facet normal -0 0 1
    outer loop
      vertex 4.5 2.5 0.599999
      vertex 7.5 -6.5 0.599999
      vertex 7.5 6.5 0.599999
    endloop
  endfacet
  facet normal 0 0 1
    outer loop
      vertex 4.5 2.5 0.599999
      vertex 4.5 -2.5 0.599999
      vertex 7.5 -6.5 0.599999
    endloop
  endfacet
  facet normal -0 0 1
    outer loop
      vertex 2.5 2.5 0.599999
      vertex 4.5 -2.5 0.599999
      vertex 4.5 2.5 0.599999
    endloop
  endfacet
  facet normal 0 0 1
    outer loop
      vertex 4.5 -2.5 0.599999
      vertex 2.5 2.5 0.599999
      vertex 2.5 -2.5 0.599999
    endloop
  endfacet
  facet normal 0 0 1
    outer loop
      vertex -2.5 -2.5 0.599999
      vertex 2.5 -2.5 0.599999
      vertex -2.5 2.5 0.599999
    endloop
  endfacet
  facet normal 0 0 1
    outer loop
      vertex 2.5 -2.5 0.599999
      vertex -2.5 -2.5 0.599999
      vertex 2.5 -4.5 0.599999
    endloop
  endfacet
  facet normal 0 0 1
    outer loop
      vertex -2.5 -4.5 0.599999
      vertex 2.5 -4.5 0.599999
      vertex -2.5 -2.5 0.599999
    endloop
  endfacet
  facet normal 0 0 1
    outer loop
      vertex 2.5 -4.5 0.599999
      vertex -2.5 -4.5 0.599999
      vertex 6.5 -7.5 0.599999
    endloop
  endfacet
  facet normal 0 0 1
    outer loop
      vertex 6.5 -7.5 0.599999
      vertex -2.5 -4.5 0.599999
      vertex -6.5 -7.5 0.599999
    endloop
  endfacet
  facet normal 1 -0 0
    outer loop
      vertex -2.5 -4.5 2.6
      vertex -2.5 -2.5 0.599999
      vertex -2.5 -2.5 2.6
    endloop
  endfacet
  facet normal 1 0 0
    outer loop
      vertex -2.5 -2.5 0.599999
      vertex -2.5 -4.5 2.6
      vertex -2.5 -4.5 0.599999
    endloop
  endfacet
  facet normal 1 -0 0
    outer loop
      vertex -2.5 2.5 2.6
      vertex -2.5 4.5 0.599999
      vertex -2.5 4.5 2.6
    endloop
  endfacet
  facet normal 1 0 0
    outer loop
      vertex -2.5 4.5 0.599999
      vertex -2.5 2.5 2.6
      vertex -2.5 2.5 0.599999
    endloop
  endfacet
  facet normal 0 1 -0
    outer loop
      vertex 4.5 -2.5 0.599999
      vertex 2.5 -2.5 2.6
      vertex 4.5 -2.5 2.6
    endloop
  endfacet
  facet normal 0 1 0
    outer loop
      vertex 2.5 -2.5 2.6
      vertex 4.5 -2.5 0.599999
      vertex 2.5 -2.5 0.599999
    endloop
  endfacet
  facet normal 0 1 -0
    outer loop
      vertex -2.5 -2.5 0.599999
      vertex -4.5 -2.5 2.6
      vertex -2.5 -2.5 2.6
    endloop
  endfacet
  facet normal 0 1 0
    outer loop
      vertex -4.5 -2.5 2.6
      vertex -2.5 -2.5 0.599999
      vertex -4.5 -2.5 0.599999
    endloop
  endfacet
  facet normal 0 -1 0
    outer loop
      vertex 2.5 2.5 0.599999
      vertex 4.5 2.5 2.6
      vertex 2.5 2.5 2.6
    endloop
  endfacet
  facet normal 0 -1 -0
    outer loop
      vertex 4.5 2.5 2.6
      vertex 2.5 2.5 0.599999
      vertex 4.5 2.5 0.599999
    endloop
  endfacet
  facet normal 0 -1 0
    outer loop
      vertex -4.5 2.5 0.599999
      vertex -2.5 2.5 2.6
      vertex -4.5 2.5 2.6
    endloop
  endfacet
  facet normal 0 -1 -0
    outer loop
      vertex -2.5 2.5 2.6
      vertex -4.5 2.5 0.599999
      vertex -2.5 2.5 0.599999
    endloop
  endfacet
  facet normal -0.6 0.8 0
    outer loop
      vertex 6.5 7.5 0.599999
      vertex 2.5 4.5 2.6
      vertex 2.5 4.5 3.8
    endloop
  endfacet
  facet normal -0.6 0.8 0
    outer loop
      vertex 2.5 4.5 2.6
      vertex 6.5 7.5 0.599999
      vertex 2.5 4.5 0.599999
    endloop
  endfacet
  facet normal 0 1 -0
    outer loop
      vertex 2.5 4.5 2.6
      vertex -2.5 4.5 3.8
      vertex 2.5 4.5 3.8
    endloop
  endfacet
  facet normal 0 1 0
    outer loop
      vertex -2.5 4.5 3.8
      vertex 2.5 4.5 2.6
      vertex -2.5 4.5 2.6
    endloop
  endfacet
  facet normal 0.6 0.8 0
    outer loop
      vertex -6.5 7.5 0.599999
      vertex -2.5 4.5 2.6
      vertex -2.5 4.5 0.599999
    endloop
  endfacet
  facet normal 0.6 0.8 -0
    outer loop
      vertex -2.5 4.5 2.6
      vertex -6.5 7.5 0.599999
      vertex -2.5 4.5 3.8
    endloop
  endfacet
  facet normal -0.8 -0.6 -0
    outer loop
      vertex -4.5 2.5 2.6
      vertex -7.5 6.5 0.599999
      vertex -4.5 2.5 0.599999
    endloop
  endfacet
  facet normal -0.8 -0.6 0
    outer loop
      vertex -7.5 6.5 0.599999
      vertex -4.5 2.5 2.6
      vertex -4.5 2.5 3.8
    endloop
  endfacet
  facet normal -1 0 0
    outer loop
      vertex -4.5 -2.5 2.6
      vertex -4.5 2.5 3.8
      vertex -4.5 2.5 2.6
    endloop
  endfacet
  facet normal -1 -0 0
    outer loop
      vertex -4.5 2.5 3.8
      vertex -4.5 -2.5 2.6
      vertex -4.5 -2.5 3.8
    endloop
  endfacet
  facet normal -0.8 0.6 0
    outer loop
      vertex -7.5 -6.5 0.599999
      vertex -4.5 -2.5 2.6
      vertex -4.5 -2.5 0.599999
    endloop
  endfacet
  facet normal -0.8 0.6 0
    outer loop
      vertex -4.5 -2.5 2.6
      vertex -7.5 -6.5 0.599999
      vertex -4.5 -2.5 3.8
    endloop
  endfacet
  facet normal 0.6 -0.8 0
    outer loop
      vertex -6.5 -7.5 0.599999
      vertex -2.5 -4.5 2.6
      vertex -2.5 -4.5 3.8
    endloop
  endfacet
  facet normal 0.6 -0.8 0
    outer loop
      vertex -2.5 -4.5 2.6
      vertex -6.5 -7.5 0.599999
      vertex -2.5 -4.5 0.599999
    endloop
  endfacet
  facet normal 0 -1 0
    outer loop
      vertex -2.5 -4.5 2.6
      vertex 2.5 -4.5 3.8
      vertex -2.5 -4.5 3.8
    endloop
  endfacet
  facet normal 0 -1 -0
    outer loop
      vertex 2.5 -4.5 3.8
      vertex -2.5 -4.5 2.6
      vertex 2.5 -4.5 2.6
    endloop
  endfacet
  facet normal -0.6 -0.8 0
    outer loop
      vertex 6.5 -7.5 0.599999
      vertex 2.5 -4.5 2.6
      vertex 2.5 -4.5 0.599999
    endloop
  endfacet
  facet normal -0.6 -0.8 0
    outer loop
      vertex 2.5 -4.5 2.6
      vertex 6.5 -7.5 0.599999
      vertex 2.5 -4.5 3.8
    endloop
  endfacet
  facet normal 0.8 0.6 0
    outer loop
      vertex 7.5 -6.5 0.599999
      vertex 4.5 -2.5 2.6
      vertex 4.5 -2.5 3.8
    endloop
  endfacet
  facet normal 0.8 0.6 0
    outer loop
      vertex 4.5 -2.5 2.6
      vertex 7.5 -6.5 0.599999
      vertex 4.5 -2.5 0.599999
    endloop
  endfacet
  facet normal 1 -0 0
    outer loop
      vertex 4.5 -2.5 3.8
      vertex 4.5 2.5 2.6
      vertex 4.5 2.5 3.8
    endloop
  endfacet
  facet normal 1 0 0
    outer loop
      vertex 4.5 2.5 2.6
      vertex 4.5 -2.5 3.8
      vertex 4.5 -2.5 2.6
    endloop
  endfacet
  facet normal 0.8 -0.6 0
    outer loop
      vertex 4.5 2.5 2.6
      vertex 7.5 6.5 0.599999
      vertex 4.5 2.5 3.8
    endloop
  endfacet
  facet normal 0.8 -0.6 0
    outer loop
      vertex 7.5 6.5 0.599999
      vertex 4.5 2.5 2.6
      vertex 4.5 2.5 0.599999
    endloop
  endfacet
  facet normal 1 -0 0
    outer loop
      vertex 7.5 6.5 0.599999
      vertex 7.5 7.5 0
      vertex 7.5 7.5 0.599999
    endloop
  endfacet
  facet normal 1 -0 0
    outer loop
      vertex 7.5 -6.5 0.599999
      vertex 7.5 7.5 0
      vertex 7.5 6.5 0.599999
    endloop
  endfacet
  facet normal 1 0 0
    outer loop
      vertex 7.5 -7.5 0
      vertex 7.5 -6.5 0.599999
      vertex 7.5 -7.5 0.599999
    endloop
  endfacet
  facet normal 1 0 0
    outer loop
      vertex 7.5 -6.5 0.599999
      vertex 7.5 -7.5 0
      vertex 7.5 7.5 0
    endloop
  endfacet
  facet normal -1 0 0
    outer loop
      vertex -7.5 7.5 0
      vertex -7.5 6.5 0.599999
      vertex -7.5 7.5 0.599999
    endloop
  endfacet
  facet normal -1 0 0
    outer loop
      vertex -7.5 7.5 0
      vertex -7.5 -6.5 0.599999
      vertex -7.5 6.5 0.599999
    endloop
  endfacet
  facet normal -1 0 0
    outer loop
      vertex -7.5 -7.5 0
      vertex -7.5 -6.5 0.599999
      vertex -7.5 7.5 0
    endloop
  endfacet
  facet normal -1 -0 0
    outer loop
      vertex -7.5 -6.5 0.599999
      vertex -7.5 -7.5 0
      vertex -7.5 -7.5 0.599999
    endloop
  endfacet
  facet normal -0.729537 0 0.683941
    outer loop
      vertex -7.5 -6.5 0.599999
      vertex -4.5 -4.5 3.8
      vertex -4.5 -2.5 3.8
    endloop
  endfacet
  facet normal -0.729537 0 0.683941
    outer loop
      vertex -4.5 -4.5 3.8
      vertex -7.5 -6.5 0.599999
      vertex -7.5 -7.5 0.599999
    endloop
  endfacet
  facet normal -0.729537 0 0.683941
    outer loop
      vertex -7.5 6.5 0.599999
      vertex -4.5 4.5 3.8
      vertex -7.5 7.5 0.599999
    endloop
  endfacet
  facet normal -0.729537 0 0.683941
    outer loop
      vertex -4.5 4.5 3.8
      vertex -7.5 6.5 0.599999
      vertex -4.5 2.5 3.8
    endloop
  endfacet
  facet normal 0 0 -1
    outer loop
      vertex -7.5 -7.5 0
      vertex 7.5 7.5 0
      vertex 7.5 -7.5 0
    endloop
  endfacet
  facet normal -0 0 -1
    outer loop
      vertex 7.5 7.5 0
      vertex -7.5 -7.5 0
      vertex -7.5 7.5 0
    endloop
  endfacet
  facet normal 0 1 -0
    outer loop
      vertex 7.5 7.5 0
      vertex 6.5 7.5 0.599999
      vertex 7.5 7.5 0.599999
    endloop
  endfacet
  facet normal 0 1 0
    outer loop
      vertex 6.5 7.5 0.599999
      vertex 7.5 7.5 0
      vertex -6.5 7.5 0.599999
    endloop
  endfacet
  facet normal 0 1 0
    outer loop
      vertex -7.5 7.5 0
      vertex -6.5 7.5 0.599999
      vertex 7.5 7.5 0
    endloop
  endfacet
  facet normal 0 1 0
    outer loop
      vertex -6.5 7.5 0.599999
      vertex -7.5 7.5 0
      vertex -7.5 7.5 0.599999
    endloop
  endfacet
  facet normal -0 0 1
    outer loop
      vertex -2.5 4.5 3.8
      vertex 2.5 2.5 3.8
      vertex 2.5 4.5 3.8
    endloop
  endfacet
  facet normal 0 0 1
    outer loop
      vertex -2.5 4.5 3.8
      vertex -2.5 2.5 3.8
      vertex 2.5 2.5 3.8
    endloop
  endfacet
  facet normal 0 0 1
    outer loop
      vertex -4.5 2.5 3.8
      vertex -2.5 2.5 3.8
      vertex -2.5 4.5 3.8
    endloop
  endfacet
  facet normal 0 0 1
    outer loop
      vertex -2.5 2.5 3.8
      vertex -4.5 2.5 3.8
      vertex -2.5 -2.5 3.8
    endloop
  endfacet
  facet normal 0 0 1
    outer loop
      vertex -4.5 2.5 3.8
      vertex -2.5 4.5 3.8
      vertex -4.5 4.5 3.8
    endloop
  endfacet
  facet normal 0 0 1
    outer loop
      vertex -4.5 -2.5 3.8
      vertex -2.5 -2.5 3.8
      vertex -4.5 2.5 3.8
    endloop
  endfacet
  facet normal 0 0 1
    outer loop
      vertex -2.5 -2.5 3.8
      vertex -4.5 -2.5 3.8
      vertex -2.5 -4.5 3.8
    endloop
  endfacet
  facet normal 0 0 1
    outer loop
      vertex -2.5 -4.5 3.8
      vertex -4.5 -2.5 3.8
      vertex -4.5 -4.5 3.8
    endloop
  endfacet
  facet normal 0 0 1
    outer loop
      vertex 2.5 2.5 3.8
      vertex 4.5 2.5 3.8
      vertex 4.5 4.5 3.8
    endloop
  endfacet
  facet normal 0 0 1
    outer loop
      vertex 4.5 2.5 3.8
      vertex 2.5 2.5 3.8
      vertex 4.5 -2.5 3.8
    endloop
  endfacet
  facet normal 0 0 1
    outer loop
      vertex 2.5 2.5 3.8
      vertex 4.5 4.5 3.8
      vertex 2.5 4.5 3.8
    endloop
  endfacet
  facet normal 0 0 1
    outer loop
      vertex 2.5 -2.5 3.8
      vertex 4.5 -2.5 3.8
      vertex 2.5 2.5 3.8
    endloop
  endfacet
  facet normal 0 0 1
    outer loop
      vertex 4.5 -2.5 3.8
      vertex 2.5 -2.5 3.8
      vertex 4.5 -4.5 3.8
    endloop
  endfacet
  facet normal 0 0 1
    outer loop
      vertex 2.5 -2.5 3.8
      vertex 2.5 -4.5 3.8
      vertex 4.5 -4.5 3.8
    endloop
  endfacet
  facet normal -0 0 1
    outer loop
      vertex -2.5 -2.5 3.8
      vertex 2.5 -4.5 3.8
      vertex 2.5 -2.5 3.8
    endloop
  endfacet
  facet normal 0 0 1
    outer loop
      vertex 2.5 -4.5 3.8
      vertex -2.5 -2.5 3.8
      vertex -2.5 -4.5 3.8
    endloop
  endfacet
  facet normal 0 -0.729537 0.683941
    outer loop
      vertex -6.5 -7.5 0.599999
      vertex -4.5 -4.5 3.8
      vertex -7.5 -7.5 0.599999
    endloop
  endfacet
  facet normal 0 -0.729537 0.683941
    outer loop
      vertex -4.5 -4.5 3.8
      vertex -6.5 -7.5 0.599999
      vertex -2.5 -4.5 3.8
    endloop
  endfacet
  facet normal 0 -0.729537 0.683941
    outer loop
      vertex 6.5 -7.5 0.599999
      vertex 4.5 -4.5 3.8
      vertex 2.5 -4.5 3.8
    endloop
  endfacet
  facet normal 0 -0.729537 0.683941
    outer loop
      vertex 4.5 -4.5 3.8
      vertex 6.5 -7.5 0.599999
      vertex 7.5 -7.5 0.599999
    endloop
  endfacet
  facet normal 0 -1 0
    outer loop
      vertex -7.5 -7.5 0
      vertex -6.5 -7.5 0.599999
      vertex -7.5 -7.5 0.599999
    endloop
  endfacet
  facet normal 0 -1 -0
    outer loop
      vertex -6.5 -7.5 0.599999
      vertex -7.5 -7.5 0
      vertex 6.5 -7.5 0.599999
    endloop
  endfacet
  facet normal 0 -1 0
    outer loop
      vertex 7.5 -7.5 0
      vertex 6.5 -7.5 0.599999
      vertex -7.5 -7.5 0
    endloop
  endfacet
  facet normal 0 -1 0
    outer loop
      vertex 6.5 -7.5 0.599999
      vertex 7.5 -7.5 0
      vertex 7.5 -7.5 0.599999
    endloop
  endfacet
  facet normal -0 0.729537 0.683941
    outer loop
      vertex 6.5 7.5 0.599999
      vertex 4.5 4.5 3.8
      vertex 7.5 7.5 0.599999
    endloop
  endfacet
  facet normal 0 0.729537 0.683941
    outer loop
      vertex 4.5 4.5 3.8
      vertex 6.5 7.5 0.599999
      vertex 2.5 4.5 3.8
    endloop
  endfacet
  facet normal 0 0.729537 0.683941
    outer loop
      vertex -6.5 7.5 0.599999
      vertex -4.5 4.5 3.8
      vertex -2.5 4.5 3.8
    endloop
  endfacet
  facet normal 0 0.729537 0.683941
    outer loop
      vertex -4.5 4.5 3.8
      vertex -6.5 7.5 0.599999
      vertex -7.5 7.5 0.599999
    endloop
  endfacet
  facet normal 0.729537 0 0.683941
    outer loop
      vertex 4.5 4.5 3.8
      vertex 7.5 6.5 0.599999
      vertex 7.5 7.5 0.599999
    endloop
  endfacet
  facet normal 0.729537 0 0.683941
    outer loop
      vertex 7.5 6.5 0.599999
      vertex 4.5 4.5 3.8
      vertex 4.5 2.5 3.8
    endloop
  endfacet
  facet normal 0.729537 -0 0.683941
    outer loop
      vertex 4.5 -4.5 3.8
      vertex 7.5 -6.5 0.599999
      vertex 4.5 -2.5 3.8
    endloop
  endfacet
  facet normal 0.729537 0 0.683941
    outer loop
      vertex 7.5 -6.5 0.599999
      vertex 4.5 -4.5 3.8
      vertex 7.5 -7.5 0.599999
    endloop
  endfacet
  facet normal -1 0 0
    outer loop
      vertex 2.5 -2.5 2.6
      vertex 2.5 2.5 3.8
      vertex 2.5 2.5 2.6
    endloop
  endfacet
  facet normal -1 -0 0
    outer loop
      vertex 2.5 2.5 3.8
      vertex 2.5 -2.5 2.6
      vertex 2.5 -2.5 3.8
    endloop
  endfacet
  facet normal 1 -0 0
    outer loop
      vertex -2.5 -2.5 3.8
      vertex -2.5 2.5 2.6
      vertex -2.5 2.5 3.8
    endloop
  endfacet
  facet normal 1 0 0
    outer loop
      vertex -2.5 2.5 2.6
      vertex -2.5 -2.5 3.8
      vertex -2.5 -2.5 2.6
    endloop
  endfacet
  facet normal 0 -1 0
    outer loop
      vertex -2.5 2.5 2.6
      vertex 2.5 2.5 3.8
      vertex -2.5 2.5 3.8
    endloop
  endfacet
  facet normal 0 -1 -0
    outer loop
      vertex 2.5 2.5 3.8
      vertex -2.5 2.5 2.6
      vertex 2.5 2.5 2.6
    endloop
  endfacet
  facet normal 0 1 -0
    outer loop
      vertex 2.5 -2.5 2.6
      vertex -2.5 -2.5 3.8
      vertex 2.5 -2.5 3.8
    endloop
  endfacet
  facet normal 0 1 0
    outer loop
      vertex -2.5 -2.5 3.8
      vertex 2.5 -2.5 2.6
      vertex -2.5 -2.5 2.6
    endloop
  endfacet
endsolid OpenSCAD_Model
